<svg xmlns="http://www.w3.org/2000/svg" xmlns:xlink="http://www.w3.org/1999/xlink" width="100" zoomAndPan="magnify" viewBox="0 0 75 74.999997" height="100" preserveAspectRatio="xMidYMid meet" version="1.0"><defs><clipPath id="2e8d383602"><path d="M 4 12.933594 L 71.804688 12.933594 L 71.804688 62.433594 L 4 62.433594 Z M 4 12.933594 " clip-rule="nonzero"/></clipPath></defs><g clip-path="url(#2e8d383602)"><path fill="#d9d9d9" d="M 54.609375 50.515625 C 51.738281 51.085938 49.148438 51.625 46.554688 52.109375 C 41.9375 52.972656 37.289062 53.644531 32.585938 53.761719 C 31.214844 53.800781 29.828125 53.429688 28.476562 53.550781 C 25.488281 53.808594 22.589844 53.203125 19.683594 52.8125 C 17.347656 52.496094 15.003906 51.867188 12.789062 51.050781 C 8.222656 49.363281 5.621094 45.9375 4.691406 41.171875 C 3.597656 35.578125 4.488281 30.324219 7.25 25.367188 C 9.828125 20.738281 13.386719 16.941406 17.378906 13.523438 C 17.636719 13.308594 17.945312 13.148438 18.25 12.992188 C 18.328125 12.945312 18.472656 13.015625 18.582031 13.035156 C 19.792969 15.363281 19.480469 17.730469 17.867188 19.730469 C 15.464844 22.707031 13.0625 25.695312 10.804688 28.78125 C 9.195312 30.984375 7.980469 33.441406 7.125 36.0625 C 6.644531 37.527344 6.859375 38.75 7.792969 39.96875 C 9.105469 41.667969 10.761719 42.898438 12.667969 43.8125 C 15.316406 45.085938 18.144531 45.714844 21.039062 46.078125 C 25.796875 46.671875 30.542969 46.421875 35.292969 45.957031 C 42.464844 45.261719 49.53125 43.933594 56.527344 42.230469 C 56.960938 42.125 57.375 41.9375 58.167969 41.652344 C 57.28125 41.371094 56.757812 41.183594 56.226562 41.03125 C 53.550781 40.261719 50.855469 39.535156 48.191406 38.734375 C 45.746094 38 45.539062 37.652344 45.757812 35.152344 C 46.035156 31.964844 46.367188 31.722656 49.464844 32.390625 C 53.722656 33.3125 57.96875 34.273438 62.242188 35.109375 C 64.632812 35.578125 67.066406 35.828125 69.480469 36.183594 C 70.035156 36.261719 70.582031 36.386719 71.238281 36.511719 C 71.214844 38.066406 71.351562 39.496094 71.128906 40.871094 C 70.777344 43.039062 70.042969 44.976562 67.945312 46.285156 C 65.640625 47.722656 63.566406 49.523438 61.382812 51.15625 C 58.847656 53.046875 56.722656 55.34375 54.804688 57.828125 C 54.253906 58.542969 53.921875 59.4375 53.507812 60.253906 C 53.238281 60.792969 53.003906 61.347656 52.675781 62.058594 C 51.742188 61.082031 51.667969 60.144531 51.71875 59.15625 C 51.84375 56.671875 52.511719 54.355469 53.734375 52.199219 C 53.996094 51.707031 54.238281 51.214844 54.609375 50.515625 Z M 42.773438 51.886719 C 43.316406 51.925781 43.875 52.074219 44.394531 51.984375 C 46.875 51.554688 49.34375 51.066406 51.824219 50.578125 C 52.6875 50.347656 53.550781 50.113281 54.414062 49.882812 C 54.371094 49.773438 54.332031 49.660156 54.292969 49.554688 C 53.460938 49.910156 52.628906 50.269531 51.796875 50.625 C 51.3125 50.585938 50.804688 50.441406 50.335938 50.519531 C 47.800781 50.957031 45.277344 51.449219 42.746094 51.933594 C 41.71875 52.082031 40.691406 52.226562 39.660156 52.375 C 39.699219 52.519531 39.734375 52.664062 39.769531 52.808594 C 40.769531 52.5 41.769531 52.191406 42.773438 51.886719 Z M 34.4375 53.238281 C 34.445312 53.152344 34.457031 53.066406 34.460938 52.980469 C 34.207031 52.988281 33.957031 53.003906 33.703125 53.011719 C 33.703125 53.074219 33.703125 53.132812 33.703125 53.195312 C 33.945312 53.207031 34.191406 53.222656 34.4375 53.238281 Z M 34.4375 53.238281 " fill-opacity="1" fill-rule="nonzero"/></g></svg>